<svg xmlns="http://www.w3.org/2000/svg" version="1.1" xmlns:xlink="http://www.w3.org/1999/xlink" xmlns:svgjs="http://svgjs.dev/svgjs" width="1000" height="1000" viewBox="0 0 1000 1000"><rect width="1000" height="1000" fill="#ffffff"></rect><g transform="matrix(0.7,0,0,0.7,149.57575757575756,404.8671682760287)"><svg viewBox="0 0 396 108" data-background-color="#ffffff" preserveAspectRatio="xMidYMid meet" height="272" width="1000" xmlns="http://www.w3.org/2000/svg" xmlns:xlink="http://www.w3.org/1999/xlink"><g id="tight-bounds" transform="matrix(1,0,0,1,0.2400000000000091,-0.03809713975579143)"><svg viewBox="0 0 395.52 108.07619176689819" height="108.07619176689819" width="395.52"><g><svg viewBox="0 0 395.52 108.07619176689819" height="108.07619176689819" width="395.52"><g><svg viewBox="0 0 395.52 108.07619176689819" height="108.07619176689819" width="395.52"><g><svg viewBox="0 0 395.52 108.07619176689819" height="108.07619176689819" width="395.52"><g><svg viewBox="0 0 395.52 108.07619176689819" height="108.07619176689819" width="395.52"><g transform="matrix(1,0,0,1,0,0)"><svg width="395.52" viewBox="2.8299999237060547 -37.959999084472656 144.11000061035156 39.37999725341797" height="108.07619176689819" data-palette-color="#0718c4"><path d="M14.04-17.43L13.23-7.96Q13.48-7.47 13.93-6.97 14.38-6.47 14.98-6.05 15.58-5.64 16.28-5.38 16.99-5.13 17.75-5.13L17.75-5.13Q18.8-5.13 19.73-5.94 20.65-6.76 21.35-8.14 22.05-9.52 22.44-11.29 22.83-13.06 22.83-14.97L22.83-14.97Q22.83-16.14 22.62-17.19 22.41-18.24 21.97-19.02 21.53-19.8 20.84-20.26 20.14-20.73 19.17-20.73L19.17-20.73Q17.58-20.73 16.26-19.8 14.94-18.87 14.04-17.43L14.04-17.43ZM4.15 1.2L4.15 1.2Q3.81 1.27 3.61 1.27L3.61 1.27Q2.83 1.27 2.83 0.34L2.83 0.34Q2.83 0.22 2.84 0.1 2.86-0.02 2.88-0.17L2.88-0.17 5.71-34.72Q5.71-34.79 5.73-34.86 5.74-34.94 5.74-34.99L5.74-34.99Q5.74-35.08 5.73-35.16 5.71-35.23 5.71-35.28L5.71-35.28Q5.71-35.5 5.87-35.63 6.03-35.77 6.69-35.94L6.69-35.94 13.55-37.57Q13.82-37.62 14.26-37.79 14.7-37.96 15.11-37.96L15.11-37.96Q15.43-37.96 15.71-37.82 15.99-37.67 15.99-37.26L15.99-37.26Q15.99-37.21 15.98-37.16 15.97-37.11 15.97-37.06L15.97-37.06Q15.94-36.94 15.84-35.99 15.75-35.03 15.63-33.68 15.5-32.32 15.36-30.77 15.21-29.22 15.09-27.87 14.97-26.51 14.87-25.56 14.77-24.61 14.75-24.49L14.75-24.49Q16.53-25.66 18.43-26.45 20.34-27.25 22.24-27.25L22.24-27.25Q24.76-27.25 26.59-26.21 28.42-25.17 29.61-23.45 30.81-21.73 31.38-19.48 31.96-17.24 31.96-14.84L31.96-14.84Q31.96-12.92 31.6-10.97 31.25-9.03 30.58-7.25 29.91-5.47 28.89-3.91 27.88-2.34 26.57-1.2 25.27-0.05 23.66 0.61 22.05 1.27 20.17 1.27L20.17 1.27Q17.9 1.27 16.02 0.27 14.14-0.73 12.52-2.32L12.52-2.32Q12.48-1.73 12.45-1.39 12.43-1.05 12.29-0.87 12.16-0.68 11.89-0.57 11.62-0.46 11.08-0.34L11.08-0.34Q10.82-0.27 10.14-0.11 9.47 0.05 8.53 0.26 7.59 0.46 6.46 0.71 5.32 0.95 4.15 1.2ZM55.78-22.07L55.78-22.07Q55.59-21.66 55.12-20.85 54.66-20.04 54.03-19.01 53.39-17.97 52.66-16.77 51.93-15.58 51.18-14.39 50.44-13.21 49.74-12.11 49.05-11.01 48.52-10.17 48-9.33 47.68-8.83 47.36-8.33 47.36-8.33L47.36-8.33Q47.36-8.3 47.56-8.3L47.56-8.3Q47.85-8.3 48.52-8.36 49.19-8.42 50.07-8.5 50.95-8.57 51.96-8.68 52.98-8.79 53.96-8.86 54.95-8.94 55.82-9 56.69-9.06 57.27-9.06L57.27-9.06Q58.52-9.06 58.52-8.52L58.52-8.52Q58.52-8.18 58.33-7.84 58.15-7.5 58.15-7.45L58.15-7.45 54.64-0.88Q54.59-0.88 54.58-0.77 54.56-0.66 54.51-0.66L54.51-0.66Q54.03-0.17 53.61-0.12 53.2-0.07 52.9-0.02L52.9-0.02Q50.83 0 49.24 0.02 47.65 0.05 46.37 0.06 45.09 0.07 44.05 0.09 43.02 0.1 42.03 0.11 41.04 0.12 40.04 0.12 39.04 0.12 37.84 0.12L37.84 0.12Q35.5 0.12 34.58-0.24 33.66-0.61 33.66-1.32L33.66-1.32Q33.66-1.81 33.99-2.42 34.32-3.03 34.84-3.81L34.84-3.81Q36.4-6.03 38.01-8.31 39.62-10.6 41.09-12.7 42.55-14.79 43.77-16.59 44.99-18.38 45.8-19.63L45.8-19.63Q46.43-20.65 46.73-21.55 47.02-22.44 47.02-23.22L47.02-23.22Q47.02-24.19 46.62-24.95 46.21-25.71 45.49-26.23 44.77-26.76 43.82-27.03 42.87-27.29 41.77-27.29L41.77-27.29Q40.38-27.29 38.94-26.87 37.5-26.44 36.11-25.54L36.11-25.54Q35.62-25.22 35.32-25.22L35.32-25.22Q35.06-25.22 34.97-25.44 34.89-25.66 34.89-25.85L34.89-25.85Q34.89-26.81 35.13-28.08 35.37-29.35 35.68-30.52 35.98-31.69 36.23-32.54 36.47-33.4 36.47-33.52L36.47-33.52Q36.52-33.52 37.13-33.97 37.74-34.42 39.04-34.97 40.33-35.52 42.39-35.99 44.46-36.45 47.43-36.45L47.43-36.45Q49.19-36.45 50.96-35.73 52.73-35.01 54.14-33.74 55.54-32.47 56.42-30.75 57.3-29.03 57.3-27.05L57.3-27.05Q57.3-25.85 56.93-24.62 56.56-23.39 55.78-22.07ZM83.3-27.44L81.78-19.87Q81.27-19.92 80.63-19.98 80-20.04 79.29-20.04L79.29-20.04Q78.22-20.04 77.11-19.86 76-19.68 75.04-19.14 74.09-18.6 73.41-17.66 72.72-16.72 72.53-15.23L72.53-15.23Q72.36-13.43 72.25-12.27 72.14-11.11 72.09-10.36 72.04-9.62 72-9.17 71.97-8.72 71.94-8.33L71.94-8.33Q71.94-8.23 71.91-7.79 71.87-7.35 71.8-6.76 71.72-6.18 71.66-5.49 71.6-4.81 71.53-4.22 71.45-3.64 71.42-3.2 71.38-2.76 71.38-2.66L71.38-2.66Q71.38-2.47 71.39-2.33 71.41-2.2 71.41-2.08L71.41-2.08Q71.41-1.88 71.22-1.75 71.04-1.61 70.41-1.44L70.41-1.44 63.94 0.88Q63.67 0.98 63.23 1.12 62.79 1.27 62.37 1.27L62.37 1.27Q62.03 1.27 61.77 1.1 61.52 0.93 61.52 0.51L61.52 0.51 63.62-23.68Q63.69-24.49 63.8-24.79 63.91-25.1 64.35-25.2L64.35-25.2Q66.57-25.63 68.94-26.09 71.31-26.54 73.53-27.25L73.53-27.25Q73.73-27.25 73.76-27.19 73.8-27.12 73.8-27L73.8-27Q73.8-26.95 73.79-26.86 73.77-26.76 73.71-26.42 73.65-26.07 73.54-25.38 73.43-24.68 73.24-23.44L73.24-23.44Q74.36-24.32 75.72-25.05 77.07-25.78 78.44-26.31 79.8-26.83 81.07-27.14 82.34-27.44 83.3-27.44L83.3-27.44ZM97.92-27.25L97.92-27.25Q100.24-27.25 102.13-26.38 104.02-25.51 105.38-24.13 106.73-22.75 107.46-21.04 108.2-19.34 108.2-17.63L108.2-17.63Q108.2-16.11 107.27-14.59 106.34-13.06 104.67-11.84 103-10.62 100.65-9.86 98.31-9.11 95.5-9.11L95.5-9.11Q94.04-9.11 92.42-9.4L92.42-9.4Q92.52-8.35 93.03-7.59 93.55-6.84 94.33-6.35 95.11-5.86 96.1-5.63 97.09-5.4 98.14-5.4L98.14-5.4Q99.31-5.4 100.4-5.6 101.48-5.81 102.48-6.15 103.48-6.49 104.41-6.91 105.34-7.32 106.17-7.74L106.17-7.74Q106.39-7.79 106.55-7.82 106.71-7.86 106.85-7.86L106.85-7.86Q106.85-7.86 106.84-7.47 106.83-7.08 106.83-6.37 106.83-5.66 106.82-4.66 106.8-3.66 106.78-2.44L106.78-2.44Q106.85-2.32 106.88-2.2 106.9-2.08 106.9-2L106.9-2Q106.9-1.71 106.36-1.37 105.83-1.03 104.96-0.66 104.09-0.29 102.98 0.05 101.87 0.39 100.72 0.67 99.58 0.95 98.5 1.11 97.43 1.27 96.62 1.27L96.62 1.27Q93.99 1.27 91.51 0.35 89.03-0.56 87.11-2.27 85.2-3.98 84.05-6.42 82.9-8.86 82.9-11.91L82.9-11.91Q82.9-15.11 84-17.91 85.1-20.7 87.09-22.78 89.08-24.85 91.84-26.05 94.6-27.25 97.92-27.25ZM97.62-20.75L97.62-20.75Q96.62-20.75 95.78-20.32 94.94-19.9 94.24-19.1 93.55-18.31 93.03-17.2 92.52-16.09 92.2-14.75L92.2-14.75Q94.72-15.19 96.38-15.67 98.04-16.16 99.04-16.66 100.04-17.16 100.46-17.66 100.87-18.16 100.87-18.63L100.87-18.63Q100.87-19.07 100.54-19.46 100.21-19.85 99.72-20.14 99.24-20.43 98.66-20.59 98.09-20.75 97.62-20.75ZM128.95-18.82L124.4-18.82Q124.06-16.26 123.76-13.71 123.45-11.16 123.38-8.94L123.38-8.94Q123.38-7.98 123.53-7.35 123.67-6.71 123.95-6.35 124.23-5.98 124.62-5.82 125.01-5.66 125.5-5.66L125.5-5.66Q126.28-5.66 127.21-5.9 128.14-6.13 129.07-6.49L129.07-6.49Q129.36-6.62 129.57-6.68 129.78-6.74 129.92-6.74L129.92-6.74Q130.17-6.74 130.25-6.52 130.34-6.3 130.42-5.75 130.51-5.2 130.68-4.27 130.85-3.34 131.24-1.93L131.24-1.93Q131.26-1.81 131.28-1.72 131.29-1.64 131.29-1.56L131.29-1.56Q131.29-1.22 131.03-1.07 130.78-0.93 130.19-0.73L130.19-0.73Q129.19-0.39 128.08-0.04 126.97 0.32 125.88 0.61 124.79 0.9 123.79 1.09 122.79 1.27 122.04 1.27L122.04 1.27Q117.96 1.27 116.09-0.76 114.22-2.78 114.22-6.93L114.22-6.93Q114.22-7.64 114.27-8.39 114.32-9.13 114.39-9.94L114.39-9.94Q114.64-12.38 114.82-14.56 115-16.75 115.2-18.75L115.2-18.75 112.64-18.75Q111.32-18.75 110.73-18.86 110.15-18.97 110.15-19.31L110.15-19.31Q110.15-19.41 110.39-19.84 110.63-20.26 111.01-20.86 111.39-21.46 111.83-22.14 112.27-22.83 112.67-23.43 113.08-24.02 113.37-24.46 113.66-24.9 113.74-25L113.74-25 115.47-25Q115.69-26.86 115.82-28.11 115.96-29.37 116.04-30.2 116.13-31.03 116.2-31.48 116.27-31.93 116.36-32.15 116.45-32.37 116.58-32.43 116.71-32.5 116.93-32.54L116.93-32.54Q118.03-32.76 119.06-32.95 120.08-33.13 121.11-33.33 122.13-33.52 123.2-33.78 124.26-34.03 125.41-34.38L125.41-34.38Q125.48-34.38 125.5-34.39 125.53-34.4 125.6-34.4L125.6-34.4Q125.89-34.4 125.89-34.2L125.89-34.2 125.89-34.16Q125.77-32.81 125.51-30.42 125.26-28.03 124.94-25L124.94-25 131.48-25Q131.68-25 131.86-24.87 132.05-24.73 132.05-24.41L132.05-24.41Q132.05-24.29 131.75-23.54 131.46-22.78 130.92-21.56L130.92-21.56 130.04-19.58Q129.87-19.21 129.69-19.04 129.51-18.87 128.95-18.82L128.95-18.82ZM135.73-20.65L135.73-20.65Q136.02-24 136.21-27.27 136.39-30.54 136.61-33.98L136.61-33.98Q136.66-34.79 136.77-35.1 136.88-35.4 137.32-35.5L137.32-35.5Q139.59-35.91 141.87-36.34 144.15-36.77 146.45-37.48L146.45-37.48Q146.52-37.5 146.67-37.5L146.67-37.5Q146.94-37.5 146.94-37.26L146.94-37.26 143.76-2.39 143.76-1.98Q143.76-1.76 143.59-1.62 143.42-1.49 142.79-1.32L142.79-1.32 136.39 1.03Q136.12 1.15 135.68 1.28 135.24 1.42 134.83 1.42L134.83 1.42Q134.48 1.42 134.23 1.25 133.97 1.07 133.97 0.66L133.97 0.66 133.97 0.51Q134.17-1.95 134.35-4.31 134.53-6.67 134.74-9.18 134.95-11.69 135.19-14.5 135.44-17.31 135.73-20.65Z" opacity="1" transform="matrix(1,0,0,1,0,0)" fill="#0718c4" class="undefined-text-0" data-fill-palette-color="primary" id="text-0"></path></svg></g></svg></g></svg></g></svg></g></svg></g><defs></defs></svg><rect width="395.52" height="108.07619176689819" fill="none" stroke="none" visibility="hidden"></rect></g></svg></g></svg>